<?xml version="1.0" encoding="utf-8"?>
<!-- Generator: Adobe Illustrator 26.2.1, SVG Export Plug-In . SVG Version: 6.00 Build 0)  -->
<svg version="1.1" id="Layer_1" xmlns="http://www.w3.org/2000/svg" xmlns:xlink="http://www.w3.org/1999/xlink" x="0px" y="0px"
	 viewBox="0 0 240 234" style="enable-background:new 0 0 240 234;" xml:space="preserve">
<style type="text/css">
	.st0{fill:#EB1000;}
	.st1{fill:#FFFFFF;}
</style>
<path class="st0" d="M42.5,0h155C221,0,240,19,240,42.5v149c0,23.5-19,42.5-42.5,42.5h-155C19,234,0,215,0,191.5v-149
	C0,19,19,0,42.5,0z"/>
<path id="_256" class="st1" d="M186.6,176h-28.5c-2.5,0-4.8-1.4-5.8-3.8l-30.9-72.4c-0.2-0.7-1-1.1-1.7-0.9
	c-0.4,0.1-0.8,0.5-0.9,0.9l-19.3,45.9c-0.4,0.8,0,1.8,0.9,2.1c0.2,0.1,0.4,0.1,0.6,0.1h21.2c1.3,0,2.5,0.8,3,2l9.3,20.7
	c0.8,1.9-0.1,4.2-2,5c-0.5,0.2-1,0.3-1.5,0.3H53.7c-1.9,0-3.5-1.6-3.5-3.5c0-0.5,0.1-0.9,0.3-1.4L99.6,54.1c1-2.5,3.5-4.2,6.2-4.1
	h28.3c2.7,0,5.2,1.6,6.2,4.1L189.8,171c0.8,1.8-0.1,3.9-1.8,4.6C187.5,175.8,187.1,175.9,186.6,176z"/>
</svg>
